<?xml version="1.0" standalone="no"?><!DOCTYPE svg PUBLIC "-//W3C//DTD SVG 1.1//EN" "http://www.w3.org/Graphics/SVG/1.1/DTD/svg11.dtd"><svg t="1619681554655" class="icon" viewBox="0 0 1024 1024" version="1.1" xmlns="http://www.w3.org/2000/svg" p-id="3910" xmlns:xlink="http://www.w3.org/1999/xlink" width="32" height="32"><defs><style type="text/css"></style></defs><path d="M99.056 361.34h102.097c17.6 0 32 14.4 32 32v535.909c0 17.6-14.4 32-32 32H99.056c-17.6 0-32-14.4-32-32V393.34c0-17.6 14.4-32 32-32zM889.424 349.133h-220.33l37.371-124.572C727.227 79.227 609.151 31.208 581.893 58.463c-20.762 20.764-38.447 43.827-41.524 62.288-10.745 64.465-49.301 151.084-89.624 228.382h-51.811c-36.403 0-66.186 29.785-66.186 66.186v490.489c0 36.404 29.784 66.186 66.186 66.186h490.49c36.403 0 66.186-29.783 66.186-66.186V415.32c0-36.402-29.783-66.187-66.186-66.187z" p-id="3911" fill="#d81e06"></path></svg>